<?xml version="1.0" encoding="utf-8"?>
<!-- Generator: Adobe Illustrator 19.2.1, SVG Export Plug-In . SVG Version: 6.00 Build 0)  -->
<svg version="1.1" xmlns="http://www.w3.org/2000/svg" xmlns:xlink="http://www.w3.org/1999/xlink" x="0px" y="0px"
	 viewBox="0 0 800 800" style="enable-background:new 0 0 800 800;" xml:space="preserve">
<style type="text/css">
	.st0{display:none;}
	.st1{display:inline;fill:#48302C;}
	.st2{fill:#927E48;}
	.st3{fill:#CEC27A;}
	.st4{fill:#48302C;}
	.st5{display:inline;fill:#C6B6AC;}
	.st6{display:inline;fill:#FEFFE6;}
	.st7{display:inline;fill:#C16B46;}
	.st8{display:inline;fill:#D38A71;}
	.st9{display:inline;fill:#A05935;}
	.st10{display:inline;fill:#756260;}
	.st11{display:inline;fill:#895F42;}
	.st12{display:inline;fill:#787F30;}
	.st13{display:inline;fill:#E09963;}
	.st14{display:inline;fill:#B9944C;}
	.st15{display:inline;fill:#FFF6B2;}
	.st16{display:inline;fill:#FEF8CB;}
	.st17{display:inline;fill:#B5AC6D;}
	.st18{display:inline;fill:#FFD592;}
	.st19{display:inline;fill:#FCC16B;}
	.st20{display:inline;fill:#CEC27A;}
	.st21{display:inline;fill:#DDEF9C;}
	.st22{display:inline;fill:#CEC5AA;}
	.st23{display:inline;fill:#82422C;}
	.st24{display:inline;fill:#E8AB7E;}
	.st25{display:inline;fill:#E2927D;}
	.st26{display:inline;fill:#B78D8D;}
	.st27{display:inline;fill:#937674;}
	.st28{display:inline;fill:#A58383;}
	.st29{display:inline;fill:#E55C17;}
	.st30{display:inline;fill:#FCCB9D;}
	.st31{display:inline;fill:#E2D3CC;}
	.st32{display:inline;fill:#FEFFF3;}
	.st33{display:inline;fill:#E8E9EB;}
	.st34{display:inline;fill:#EAD4B5;}
	.st35{display:inline;fill:#FFDEA9;}
	.st36{display:inline;fill:#EABB9B;}
	.st37{display:inline;fill:#DDBFD1;}
	.st38{display:inline;fill:#CC9ABA;}
	.st39{display:inline;fill:#B5A18D;}
	.st40{display:inline;fill:#B58A60;}
	.st41{display:inline;fill:#978139;}
	.st42{display:inline;fill:#BCB48B;}
	.st43{display:inline;fill:#528466;}
	.st44{display:inline;fill:#74AA77;}
	.st45{display:inline;fill:#FFEEA6;}
	.st46{display:inline;fill:#666832;}
	.st47{display:inline;fill:#899251;}
	.st48{display:inline;fill:#C4F7BC;}
	.st49{display:inline;fill:#7F4C3E;}
	.st50{display:inline;fill:#727271;}
	.st51{display:inline;fill:#743706;}
	.st52{display:inline;fill:#FFE473;}
	.st53{display:inline;fill:#895F58;}
	.st54{display:inline;fill:#A07A7A;}
	.st55{display:inline;fill:#D3C8C2;}
	.st56{display:inline;fill:#CEC089;}
	.st57{display:inline;fill:#FFD4B2;}
	.st58{display:inline;fill:#EFDFCE;}
</style>
<g id="Layer_3" class="st0">
	<path class="st1" d="M338.6,452.3l15.5-13.8c0,0-4.9-41.4-33.4-45.8c-28.5-4.4-44.4,12.2-44.4,12.2s-3.4,35.4,31.5,44
		C334.9,455.6,338.6,452.3,338.6,452.3z"/>
	<path class="st1" d="M461.4,452.3l-15.5-13.8c0,0,4.9-41.4,33.4-45.8c28.5-4.4,44.4,12.2,44.4,12.2s3.4,35.4-31.5,44
		C465.1,455.6,461.4,452.3,461.4,452.3z"/>
</g>
<g id="Layer_2">
	<g>
		<g>
			<path class="st2" d="M325.1,411.2c10.8,0,19.9,7.3,23,17.3c0.7-2.4,1.1-4.9,1.1-7.5c0-13.7-10.8-24.8-24.1-24.8
				c-13.3,0-24.1,11.1-24.1,24.8c0,2.6,0.4,5.1,1.1,7.5C305.2,418.5,314.3,411.2,325.1,411.2z"/>
			<path class="st3" d="M325.1,445.8c10.8,0,19.9-7.3,23-17.3c-3.1-10-12.2-17.3-23-17.3c-10.8,0-19.9,7.3-23,17.3
				C305.2,438.5,314.3,445.8,325.1,445.8z"/>
		</g>
		<g>
			<line class="st4" x1="325.1" y1="399.9" x2="325.1" y2="442.1"/>
			<path class="st4" d="M325.1,399.9c0,0-0.2,0.2-0.4,0.5c-0.2,0.3-0.6,0.8-1,1.3c-0.8,1.2-1.8,2.8-2.6,4.8c-0.9,2-1.6,4.3-2.2,6.8
				c-0.5,2.5-0.8,5.1-0.8,7.7c0,2.6,0.3,5.3,0.8,7.7c0.3,1.2,0.6,2.4,0.9,3.6c0.4,1.1,0.8,2.2,1.2,3.2c0.4,1,0.9,1.9,1.3,2.7
				c0.5,0.8,0.9,1.5,1.3,2.1c0.4,0.6,0.8,1,1,1.3c0.2,0.3,0.4,0.5,0.4,0.5s0.2-0.2,0.4-0.5c0.2-0.3,0.6-0.8,1-1.3
				c0.4-0.6,0.8-1.3,1.3-2.1c0.5-0.8,0.9-1.7,1.3-2.7c0.4-1,0.9-2.1,1.2-3.2c0.4-1.1,0.7-2.3,0.9-3.6c0.5-2.5,0.8-5.1,0.8-7.7
				c0-2.6-0.3-5.3-0.8-7.7c-0.5-2.5-1.3-4.8-2.2-6.8c-0.9-2-1.8-3.6-2.6-4.8c-0.4-0.6-0.8-1-1-1.3
				C325.3,400.1,325.1,399.9,325.1,399.9z"/>
		</g>
	</g>
	<g>
		<ellipse class="st2" cx="474.9" cy="421" rx="24.1" ry="24.8"/>
		<g>
			<path class="st2" d="M474.9,411.2c10.8,0,19.9,7.3,23,17.3c0.7-2.4,1.1-4.9,1.1-7.5c0-13.7-10.8-24.8-24.1-24.8
				c-13.3,0-24.1,11.1-24.1,24.8c0,2.6,0.4,5.1,1.1,7.5C455,418.5,464.1,411.2,474.9,411.2z"/>
			<path class="st3" d="M474.9,445.8c10.8,0,19.9-7.3,23-17.3c-3.1-10-12.2-17.3-23-17.3c-10.8,0-19.9,7.3-23,17.3
				C455,438.5,464.1,445.8,474.9,445.8z"/>
		</g>
		<g>
			<line class="st4" x1="474.9" y1="399.9" x2="474.9" y2="442.1"/>
			<path class="st4" d="M474.9,399.9c0,0,0.2,0.2,0.4,0.5c0.2,0.3,0.6,0.8,1,1.3c0.8,1.2,1.8,2.8,2.6,4.8c0.9,2,1.6,4.3,2.2,6.8
				c0.5,2.5,0.8,5.1,0.8,7.7c0,2.6-0.3,5.3-0.8,7.7c-0.3,1.2-0.6,2.4-0.9,3.6c-0.4,1.1-0.8,2.2-1.2,3.2c-0.4,1-0.9,1.9-1.3,2.7
				c-0.5,0.8-0.9,1.5-1.3,2.1c-0.4,0.6-0.8,1-1,1.3c-0.2,0.3-0.4,0.5-0.4,0.5s-0.2-0.2-0.4-0.5c-0.2-0.3-0.6-0.8-1-1.3
				c-0.4-0.6-0.8-1.3-1.3-2.1c-0.5-0.8-0.9-1.7-1.3-2.7c-0.4-1-0.9-2.1-1.2-3.2c-0.4-1.1-0.7-2.3-0.9-3.6c-0.5-2.5-0.8-5.1-0.8-7.7
				c0-2.6,0.3-5.3,0.8-7.7c0.5-2.5,1.3-4.8,2.2-6.8c0.9-2,1.8-3.6,2.6-4.8c0.4-0.6,0.8-1,1-1.3C474.7,400.1,474.9,399.9,474.9,399.9
				z"/>
		</g>
	</g>
</g>
<g id="Layer_1" class="st0">
	<polygon class="st5" points="519.9,205.4 460.8,263.3 475.8,268.2 	"/>
	<polygon class="st5" points="536.8,358.3 571.7,413.3 564.9,402.6 536.8,358.3 495.5,333.4 454.4,308.7 432.9,396.2 441.6,360.8 
		454.4,308.7 	"/>
	<polygon class="st5" points="276.2,404.9 241.7,416.3 222.5,422.5 222.5,422.5 	"/>
	<polygon class="st5" points="333.9,398.3 333.9,398.3 333.9,398.3 	"/>
	<polygon class="st5" points="304.5,448 304.5,448 304.5,448 	"/>
	<path class="st5" d="M377,524l-0.9,1C376,525,376.3,524.5,377,524z"/>
	<path class="st5" d="M423.1,524c0.6,0.5,0.9,1,0.9,1L423.1,524z"/>
	<polygon class="st5" points="495.5,448 495.5,448 495.5,448 	"/>
	<polygon class="st5" points="466.1,398.3 466.1,398.3 466.1,398.3 	"/>
	<polygon class="st5" points="523.8,404.9 577.5,422.5 577.5,422.5 558.3,416.3 	"/>
	<polygon class="st5" points="345.6,308.7 304.5,333.4 263.2,358.3 	"/>
	<polygon class="st5" points="188.4,483.8 208.2,535.3 200.8,456.6 	"/>
	<polygon class="st5" points="324.2,268.2 339.2,263.3 280.1,205.4 274,284.5 	"/>
	<polygon class="st6" points="432.9,396.2 466.1,398.3 445.9,438.5 	"/>
	<polygon class="st7" points="400,515.6 427.3,479 417,512 408,517.4 	"/>
	<polygon class="st8" points="427.3,479 400,430.1 400,515.6 	"/>
	<polygon class="st9" points="427.3,479 434.9,517.3 417,512 	"/>
	<polygon class="st10" points="427.3,479 444.2,456.6 434.9,517.3 	"/>
	<polygon class="st11" points="444.2,456.6 455.9,475.6 434.9,517.3 	"/>
	<polygon class="st11" points="444.2,456.6 445.9,438.5 461.4,452.3 	"/>
	<polygon class="st12" points="523.8,404.9 536.8,358.3 564.9,402.6 	"/>
	<polygon class="st13" points="444.2,456.6 400,430.1 427.3,479 	"/>
	<polygon class="st14" points="444.2,456.6 445.9,438.5 420,442.1 	"/>
	<polygon class="st15" points="420,442.1 432.9,396.2 445.9,438.5 	"/>
	<polygon class="st16" points="432.9,396.2 484.3,358.2 466.1,398.3 	"/>
	<polygon class="st17" points="461.4,452.3 455.9,475.6 444.2,456.6 	"/>
	<polygon class="st18" points="461.4,452.3 488,469.8 455.9,475.6 	"/>
	<polygon class="st19" points="461.4,452.3 495.5,448 488,469.8 	"/>
	<polygon class="st20" points="495.5,448 523.8,447.5 488,469.8 	"/>
	<polygon class="st21" points="495.5,448 523.8,404.9 523.8,447.5 	"/>
	<polygon class="st1" points="523.8,404.9 577.5,422.5 564.9,402.6 	"/>
	<polygon class="st22" points="523.8,447.5 558.3,416.3 523.8,404.9 	"/>
	<polygon class="st23" points="558.3,416.3 572.8,448 577.5,422.5 	"/>
	<polygon class="st10" points="577.5,422.5 599.2,456.6 572.8,448 	"/>
	<polygon class="st24" points="455.9,475.6 493.9,509 434.9,517.3 	"/>
	<polygon class="st25" points="488,469.8 493.9,509 455.9,475.6 	"/>
	<polygon class="st26" points="488,469.8 536.7,492.2 493.9,509 	"/>
	<polygon class="st27" points="488,469.8 523.8,447.5 536.7,492.2 	"/>
	<polygon class="st28" points="558.3,416.3 536.7,492.2 523.8,447.5 	"/>
	<polygon class="st11" points="424,525 407.3,542.3 404.4,527.7 417,517.3 	"/>
	<path class="st29" d="M400,515.6l8,1.8l9.1-5.4l17.8,5.3L424,525c0,0-4.7-7.9-16.7,5.6v11.6l-7.3,4.7V515.6z"/>
	<polygon class="st30" points="434.9,517.3 452.8,567.1 493.9,509 	"/>
	<polygon class="st16" points="434.9,517.3 424,525 407.3,542.3 400,546.9 452.8,567.1 	"/>
	<polygon class="st31" points="400,546.9 400,581 452.8,567.1 	"/>
	<polygon class="st16" points="400,581 443.5,603.9 452.8,567.1 	"/>
	<polygon class="st32" points="400,581 400,608.3 443.5,603.9 	"/>
	<polygon class="st6" points="452.8,567.1 475.8,574.8 443.5,603.9 	"/>
	<polygon class="st33" points="452.8,567.1 520.7,538 475.8,574.8 	"/>
	<polygon class="st34" points="520.7,538 493.9,509 452.8,567.1 	"/>
	<polygon class="st35" points="493.9,509 536.7,492.2 520.7,538 	"/>
	<polygon class="st36" points="536.7,492.2 591.8,535.3 520.7,538 	"/>
	<polygon class="st36" points="520.7,538 509.6,581 475.8,574.8 	"/>
	<polygon class="st33" points="475.8,574.8 443.5,603.9 509.6,581 	"/>
	<polygon class="st37" points="443.5,603.9 479.1,611.5 509.6,581 	"/>
	<polygon class="st38" points="443.5,603.9 433.6,631.9 479.1,611.5 	"/>
	<polygon class="st38" points="400,608.3 443.5,603.9 400,633.1 	"/>
	<polygon class="st8" points="558.3,416.3 572.8,448 536.7,492.2 	"/>
	<polygon class="st39" points="572.8,448 599.2,456.6 536.7,492.2 	"/>
	<polygon class="st39" points="599.2,456.6 611.6,483.8 591.8,535.3 	"/>
	<polygon class="st27" points="536.7,492.2 593.5,517.3 591.8,535.3 	"/>
	<polygon class="st26" points="536.7,492.2 599.2,456.6 593.5,517.3 	"/>
	<polygon class="st8" points="520.7,538 539,573.9 509.6,581 	"/>
	<polygon class="st8" points="520.7,538 558.8,555.6 591.8,535.3 	"/>
	<polygon class="st28" points="520.7,538 531.7,559.5 558.8,555.6 	"/>
	<polygon class="st40" points="454.4,308.7 526,284.5 536.8,358.3 	"/>
	<polygon class="st41" points="526,284.5 579.9,323.3 536.8,358.3 	"/>
	<polygon class="st40" points="579.9,323.3 573.9,357.5 536.8,358.3 	"/>
	<polygon class="st17" points="573.9,357.5 599.2,456.6 536.8,358.3 	"/>
	<polygon class="st42" points="573.9,357.5 607.3,373.5 599.2,456.6 	"/>
	<polygon class="st43" points="573.9,357.5 596.1,339.4 579.9,323.3 	"/>
	<polygon class="st44" points="573.9,357.5 596.1,339.4 607.3,373.5 	"/>
	<polygon class="st32" points="579.9,323.3 612.4,241.3 596.1,339.4 	"/>
	<polygon class="st45" points="602.2,302.2 607.3,373.5 596.1,339.4 	"/>
	<polygon class="st46" points="495.5,333.4 484.3,358.2 536.8,358.3 	"/>
	<polygon class="st47" points="526,284.5 460.8,263.3 454.4,308.7 	"/>
	<polygon class="st48" points="460.8,263.3 519.9,205.4 475.8,268.2 	"/>
	<polygon class="st49" points="454.4,308.7 484.3,358.2 458.6,377.2 	"/>
	<polygon class="st49" points="490.4,234.3 444.2,238.9 460.8,263.3 	"/>
	<polygon class="st50" points="444.2,238.9 400,232.9 435.8,274.6 	"/>
	<polygon class="st1" points="435.8,274.6 460.8,263.3 454.4,308.7 	"/>
	<polygon class="st1" points="400,232.9 400,278 435.8,274.6 	"/>
	<polygon class="st51" points="435.8,274.6 400,354.3 400,278 	"/>
	<polygon class="st52" points="454.4,308.7 432.9,396.2 458.6,377.2 	"/>
	<polygon class="st53" points="400,354.3 454.4,308.7 441.6,360.8 	"/>
	<polygon class="st41" points="454.4,308.7 435.8,274.6 400,354.3 	"/>
	<polygon class="st54" points="444.2,238.9 460.8,263.3 435.8,274.6 	"/>
	<polygon class="st54" points="519.9,205.4 526,284.5 492.5,244.4 	"/>
	<polygon class="st49" points="492.5,244.4 475.8,268.2 526,284.5 	"/>
	<polygon class="st28" points="400,430.1 432.9,396.2 400,354.3 	"/>
	<polygon class="st20" points="432.9,396.2 400,354.3 441.6,360.8 	"/>
	<polygon class="st42" points="432.9,396.2 420,442.1 400,430.1 	"/>
	<polygon class="st42" points="484.3,358.2 495.5,333.4 454.4,308.7 	"/>
	<polygon class="st55" points="484.3,358.2 523.8,404.9 466.1,398.3 	"/>
	<polygon class="st56" points="484.3,358.2 536.8,358.3 523.8,404.9 	"/>
	<polygon class="st8" points="590.6,296.3 580.4,231.8 612.4,241.3 	"/>
	<polygon class="st8" points="590.6,296.3 579.9,323.3 526,284.5 	"/>
	<polygon class="st24" points="580.4,231.8 612.4,184.5 612.4,241.3 	"/>
	<polygon class="st24" points="580.4,231.8 526,284.5 590.6,296.3 	"/>
	<polygon class="st41" points="519.9,205.4 564.4,158.4 550.6,198.4 	"/>
	<polygon class="st46" points="519.9,205.4 550.6,198.4 521.7,228.3 	"/>
	<polygon class="st14" points="564.4,158.4 589.2,135.6 595,154.9 	"/>
	<polygon class="st56" points="595,154.9 550.6,198.4 564.4,158.4 	"/>
	<polygon class="st5" points="550.6,198.4 526,284.5 521.7,228.3 	"/>
	<polygon class="st55" points="550.6,198.4 580.4,231.8 526,284.5 	"/>
	<polygon class="st57" points="550.6,198.4 612.4,184.5 580.4,231.8 	"/>
	<polygon class="st58" points="550.6,198.4 595,154.9 612.4,184.5 	"/>
	<polygon class="st5" points="400,546.9 400,581 417,576.5 	"/>
	<polygon class="st6" points="367.1,396.2 333.9,398.3 354.1,438.5 	"/>
	<polygon class="st7" points="400,515.6 372.7,479 383,512 392,517.4 	"/>
	<polygon class="st8" points="372.7,479 400,430.1 400,515.6 	"/>
	<polygon class="st9" points="372.7,479 365.2,517.3 383,512 	"/>
	<polygon class="st10" points="372.7,479 355.8,456.6 365.2,517.3 	"/>
	<polygon class="st11" points="355.8,456.6 344.1,475.6 365.2,517.3 	"/>
	<polygon class="st11" points="355.8,456.6 354.1,438.5 338.6,452.3 	"/>
	<polygon class="st12" points="276.2,404.9 263.2,358.3 235.1,402.6 	"/>
	<polygon class="st13" points="355.8,456.6 400,430.1 372.7,479 	"/>
	<polygon class="st14" points="355.8,456.6 354.1,438.5 380,442.1 	"/>
	<polygon class="st15" points="380,442.1 367.1,396.2 354.1,438.5 	"/>
	<polygon class="st16" points="367.1,396.2 315.8,358.2 333.9,398.3 	"/>
	<polygon class="st17" points="338.6,452.3 344.1,475.6 355.8,456.6 	"/>
	<polygon class="st18" points="338.6,452.3 312,469.8 344.1,475.6 	"/>
	<polygon class="st19" points="338.6,452.3 304.5,448 312,469.8 	"/>
	<polygon class="st20" points="304.5,448 276.2,447.5 312,469.8 	"/>
	<polygon class="st21" points="304.5,448 276.2,404.9 276.2,447.5 	"/>
	<polygon class="st1" points="276.2,404.9 222.5,422.5 235.1,402.6 	"/>
	<polygon class="st22" points="276.2,447.5 241.7,416.3 276.2,404.9 	"/>
	<polygon class="st23" points="241.7,416.3 227.2,448 222.5,422.5 	"/>
	<polygon class="st10" points="222.5,422.5 200.8,456.6 227.2,448 	"/>
	<polygon class="st24" points="344.1,475.6 306.2,509 365.2,517.3 	"/>
	<polygon class="st25" points="312,469.8 306.2,509 344.1,475.6 	"/>
	<polygon class="st26" points="312,469.8 263.3,492.2 306.2,509 	"/>
	<polygon class="st27" points="312,469.8 276.2,447.5 263.3,492.2 	"/>
	<polygon class="st28" points="241.7,416.3 263.3,492.2 276.2,447.5 	"/>
	<polygon class="st11" points="376,525 392.7,542.3 395.6,527.7 383,517.3 	"/>
	<path class="st29" d="M400,515.6l-8,1.8L383,512l-17.8,5.3L376,525c0,0,4.7-7.9,16.7,5.6v11.6l7.3,4.7V515.6z"/>
	<polygon class="st30" points="365.2,517.3 347.2,567.1 306.2,509 	"/>
	<polygon class="st16" points="365.2,517.3 376,525 392.7,542.3 400,546.9 347.2,567.1 	"/>
	<polygon class="st31" points="400,546.9 400,581 347.2,567.1 	"/>
	<polygon class="st16" points="400,581 356.5,603.9 347.2,567.1 	"/>
	<polygon class="st32" points="400,581 400,608.3 356.5,603.9 	"/>
	<polygon class="st6" points="347.2,567.1 324.2,574.8 356.5,603.9 	"/>
	<polygon class="st33" points="347.2,567.1 279.3,538 324.2,574.8 	"/>
	<polygon class="st34" points="279.3,538 306.2,509 347.2,567.1 	"/>
	<polygon class="st35" points="306.2,509 263.3,492.2 279.3,538 	"/>
	<polygon class="st36" points="263.3,492.2 208.2,535.3 279.3,538 	"/>
	<polygon class="st36" points="279.3,538 290.4,581 324.2,574.8 	"/>
	<polygon class="st33" points="324.2,574.8 356.5,603.9 290.4,581 	"/>
	<polygon class="st37" points="356.5,603.9 320.9,611.5 290.4,581 	"/>
	<polygon class="st38" points="356.5,603.9 366.4,631.9 320.9,611.5 	"/>
	<polygon class="st38" points="400,608.3 356.5,603.9 400,633.1 	"/>
	<polygon class="st8" points="241.7,416.3 227.2,448 263.3,492.2 	"/>
	<polygon class="st39" points="227.2,448 200.8,456.6 263.3,492.2 	"/>
	<polygon class="st39" points="200.8,456.6 188.4,483.8 208.2,535.3 	"/>
	<polygon class="st27" points="263.3,492.2 206.5,517.3 208.2,535.3 	"/>
	<polygon class="st26" points="263.3,492.2 200.8,456.6 206.5,517.3 	"/>
	<polygon class="st8" points="279.3,538 261,573.9 290.4,581 	"/>
	<polygon class="st8" points="279.3,538 241.2,555.6 208.2,535.3 	"/>
	<polygon class="st28" points="279.3,538 268.3,559.5 241.2,555.6 	"/>
	<polygon class="st40" points="345.6,308.7 274,284.5 263.2,358.3 	"/>
	<polygon class="st41" points="274,284.5 220.1,323.3 263.2,358.3 	"/>
	<polygon class="st40" points="220.1,323.3 226.1,357.5 263.2,358.3 	"/>
	<polygon class="st17" points="226.1,357.5 200.8,456.6 263.2,358.3 	"/>
	<polygon class="st42" points="226.1,357.5 192.7,373.5 200.8,456.6 	"/>
	<polygon class="st43" points="226.1,357.5 203.9,339.4 220.1,323.3 	"/>
	<polygon class="st44" points="226.1,357.5 203.9,339.4 192.7,373.5 	"/>
	<polygon class="st32" points="220.1,323.3 187.6,241.3 203.9,339.4 	"/>
	<polygon class="st45" points="197.8,302.2 192.7,373.5 203.9,339.4 	"/>
	<polygon class="st46" points="304.5,333.4 315.8,358.2 263.2,358.3 	"/>
	<polygon class="st47" points="274,284.5 339.2,263.3 345.6,308.7 	"/>
	<polygon class="st48" points="339.2,263.3 280.1,205.4 324.2,268.2 	"/>
	<polygon class="st49" points="345.6,308.7 315.8,358.2 341.4,377.2 	"/>
	<polygon class="st49" points="309.6,234.3 355.8,238.9 339.2,263.3 	"/>
	<polygon class="st50" points="355.8,238.9 400,232.9 364.2,274.6 	"/>
	<polygon class="st1" points="364.2,274.6 339.2,263.3 345.6,308.7 	"/>
	<polygon class="st1" points="400,232.9 400,278 364.2,274.6 	"/>
	<polygon class="st51" points="364.2,274.6 400,354.3 400,278 	"/>
	<polygon class="st52" points="345.6,308.7 367.1,396.2 341.4,377.2 	"/>
	<polygon class="st53" points="400,354.3 345.6,308.7 358.4,360.8 	"/>
	<polygon class="st41" points="345.6,308.7 364.2,274.6 400,354.3 	"/>
	<polygon class="st54" points="355.8,238.9 339.2,263.3 364.2,274.6 	"/>
	<polygon class="st54" points="280.1,205.4 274,284.5 307.5,244.4 	"/>
	<polygon class="st49" points="307.5,244.4 324.2,268.2 274,284.5 	"/>
	<polygon class="st28" points="400,430.1 367.1,396.2 400,354.3 	"/>
	<polygon class="st20" points="367.1,396.2 400,354.3 358.4,360.8 	"/>
	<polygon class="st42" points="367.1,396.2 380,442.1 400,430.1 	"/>
	<polygon class="st42" points="315.8,358.2 304.5,333.4 345.6,308.7 	"/>
	<polygon class="st55" points="315.8,358.2 276.2,404.9 333.9,398.3 	"/>
	<polygon class="st56" points="315.8,358.2 263.2,358.3 276.2,404.9 	"/>
	<polygon class="st8" points="209.4,296.3 219.6,231.8 187.6,241.3 	"/>
	<polygon class="st8" points="209.4,296.3 220.1,323.3 274,284.5 	"/>
	<polygon class="st24" points="219.6,231.8 187.6,184.5 187.6,241.3 	"/>
	<polygon class="st24" points="219.6,231.8 274,284.5 209.4,296.3 	"/>
	<polygon class="st41" points="280.1,205.4 235.6,158.4 249.4,198.4 	"/>
	<polygon class="st46" points="280.1,205.4 249.4,198.4 278.3,228.3 	"/>
	<polygon class="st14" points="235.6,158.4 210.8,135.6 205,154.9 	"/>
	<polygon class="st56" points="205,154.9 249.4,198.4 235.6,158.4 	"/>
	<polygon class="st5" points="249.4,198.4 274,284.5 278.3,228.3 	"/>
	<polygon class="st55" points="249.4,198.4 219.6,231.8 274,284.5 	"/>
	<polygon class="st57" points="249.4,198.4 187.6,184.5 219.6,231.8 	"/>
	<polygon class="st58" points="249.4,198.4 205,154.9 187.6,184.5 	"/>
	<polygon class="st5" points="400,546.9 400,581 383,576.5 	"/>
</g>
</svg>
